<svg id="メイン" xmlns="http://www.w3.org/2000/svg" viewBox="0 0 40 35"><defs><style>.cls-1{fill:#fff;}</style></defs><title>cart_wh</title><path class="cls-1" d="M39.87,5.05H7.1L6.67,0H0V1.68H5.12L7.58,30A4.62,4.62,0,0,0,16.68,31l.09-.31h6l.08.31a4.63,4.63,0,1,0,0-2.31l-.08.32h-6l-.09-.32a4.62,4.62,0,0,0-4.47-3.47,4.54,4.54,0,0,0-2.64.83l-.6.42-.46-5.28.61,0L35.58,20l.17-.58L39.54,6.12ZM27.36,26.94a2.95,2.95,0,1,1-2.95,2.95A2.95,2.95,0,0,1,27.36,26.94Zm-15.15,0a2.95,2.95,0,1,1-3,2.95A2.95,2.95,0,0,1,12.21,26.94Zm22.08-8.6L9,19.57l-.16,0-.47.11-1.13-13H37.61Z"/></svg>