<svg id="メイン" xmlns="http://www.w3.org/2000/svg" viewBox="0 0 18 22"><defs><style>.cls-1{fill:#fff;}</style></defs><title>icon_pdf_wh</title><path class="cls-1" d="M17.86,6,11.79.14A.47.47,0,0,0,11.46,0H0V22H18V6.36A.43.43,0,0,0,17.86,6ZM17,21H1V.93H11V5.51a2.36,2.36,0,0,0,2.39,2.32h1.35V6.9H13.37a1.42,1.42,0,0,1-1.44-1.39V1.59l5.11,5Z"/><path class="cls-1" d="M5,10.24H3.33v4.15h.78v-1.6H5a1.28,1.28,0,0,0,1.42-1.14.76.76,0,0,0,0-.15,1.27,1.27,0,0,0-1.27-1.27Zm-.1,1.92H4.11V10.87h.8c.41,0,.74.19.74.65s-.3.64-.76.64Z"/><path class="cls-1" d="M8.77,10.24H7.19v4.15H8.74a2,2,0,0,0,2-2v-.12a1.89,1.89,0,0,0-1.74-2Zm-.06,3.51H8V10.88h.74A1.23,1.23,0,0,1,10,12.07a1.34,1.34,0,0,1,0,.2C10,13.12,9.56,13.75,8.71,13.75Z"/><polygon class="cls-1" points="11.56 14.39 12.32 14.39 12.32 12.66 14.24 12.66 14.24 12.02 12.32 12.02 12.32 10.89 14.37 10.89 14.37 10.24 11.56 10.24 11.56 14.39"/></svg>