<svg id="メイン" xmlns="http://www.w3.org/2000/svg" viewBox="0 0 174 32"><title>logotype_bk</title><path d="M3.69,28.78a.51.51,0,0,1-.5-.51V17.44a.51.51,0,0,1,.5-.51h9.13a.18.18,0,0,0,.17-.17V14.1a.18.18,0,0,0-.17-.17H3.69a.51.51,0,0,1-.5-.51V3.79a.51.51,0,0,1,.5-.51h9.16A.17.17,0,0,0,13,3.11V.36a.17.17,0,0,0-.17-.17H.17A.18.18,0,0,0,0,.36V31.74a.18.18,0,0,0,.17.17H12.79a.17.17,0,0,0,.17-.17V29a.17.17,0,0,0-.17-.17Z"/><path d="M38.89,4.25h0a9.33,9.33,0,0,0-3.45-3,9.89,9.89,0,0,0-4.5-1H24.51a.18.18,0,0,0-.17.17V31.74a.18.18,0,0,0,.17.17h6.37a10,10,0,0,0,4.5-1,9.65,9.65,0,0,0,3.48-3,14.66,14.66,0,0,0,2.21-4.95,27.28,27.28,0,0,0,.76-6.82,27.59,27.59,0,0,0-.76-6.85A15.52,15.52,0,0,0,38.89,4.25ZM27.57,3.7a.51.51,0,0,1,.51-.51h2.76A6.21,6.21,0,0,1,33.89,4a7.19,7.19,0,0,1,2.45,2.35,12.61,12.61,0,0,1,1.66,4,24.53,24.53,0,0,1,.6,5.77,23.94,23.94,0,0,1-.6,5.69,12.75,12.75,0,0,1-1.66,4,7.15,7.15,0,0,1-2.45,2.34,6.21,6.21,0,0,1-3.05.78H28.08a.51.51,0,0,1-.51-.5Z"/><rect x="51.75" y="0.19" width="3.27" height="31.72" rx="0.17"/><path d="M65.48.19a.18.18,0,0,0-.17.17V3a.17.17,0,0,0,.17.17h5A.51.51,0,0,1,71,3.7v28a.17.17,0,0,0,.16.17h2.9a.18.18,0,0,0,.17-.17V3.7a.5.5,0,0,1,.5-.51h5.07A.16.16,0,0,0,80,3V.36a.17.17,0,0,0-.17-.17Z"/><rect x="90.21" y="0.19" width="3.27" height="31.72" rx="0.17"/><path d="M146.55.19a.18.18,0,0,0-.17.17V24.54c0,.24.05.42-.14.42s-.5-.69-.59-.92L136.31.3a.19.19,0,0,0-.16-.11h-3.54a.18.18,0,0,0-.17.17V31.74a.18.18,0,0,0,.17.17h2.73a.17.17,0,0,0,.17-.17V7.46c0-.12,0-.28.17-.28s.49.67.82,1.49l9.15,23.13a.16.16,0,0,0,.16.11h3.4a.18.18,0,0,0,.17-.17V.36a.18.18,0,0,0-.17-.17Z"/><path d="M113.66,31.83h0c-6.36,0-10-5.68-10-15.58C103.6,3,109,.19,113.61.19S123.67,3,123.67,16.25C123.67,26.15,120,31.83,113.66,31.83Zm0-28.51c-1.76,0-7,0-7,12.93,0,4.65.9,12.45,6.9,12.45h0c6,0,6.9-7.8,6.9-12.45C120.56,3.32,115.36,3.32,113.66,3.32Z"/><path d="M159.78,26.07l-1,2.72a.24.24,0,0,0,0,.23,7.94,7.94,0,0,0,6.38,3c4.36,0,8.77-2.9,8.77-8.44a8.64,8.64,0,0,0-4.77-8.22L165,13c-3.06-1.8-2.9-4.24-2.89-4.36,0-5,4-5.4,5.28-5.45a5.78,5.78,0,0,1,3.74.78s.18.15.24,0l.86-2.55a.24.24,0,0,0-.11-.28A8.89,8.89,0,0,0,167.5,0a8.27,8.27,0,0,0-8.42,8.47C159,9.2,159,13,163.5,15.63L167.73,18c3.17,1.66,2.92,5.43,2.91,5.47-.22,3.91-2.94,5.31-5.41,5.31A6.28,6.28,0,0,1,160.1,26a.17.17,0,0,0-.16-.1S159.83,25.86,159.78,26.07Z"/></svg>