<svg id="メイン" xmlns="http://www.w3.org/2000/svg" viewBox="0 0 228 178"><defs><style>.cls-1{fill:#fff;}</style></defs><title>logo_wh</title><path class="cls-1" d="M119.59,6.35V37.86a.74.74,0,0,1-.59.73L84.87,46.3l-.09,1.11c0,.16-1.18,16.32,5.13,29.81a.75.75,0,0,1-.52,1L58,85.05h0l-.22,0a12.57,12.57,0,0,0,1.47,3.16c.13.19.27.4.43.62a12.43,12.43,0,0,0,1.51,1.74l.15.15c.15.14.28.28.44.41h0c5.64,5.11,20.56,12.57,59.77,12.87a.47.47,0,0,1,.17,0h27.09V0Zm-31.89,43a.76.76,0,0,1,.58-.72l30.39-6.86a.71.71,0,0,1,.64.15.76.76,0,0,1,.28.58V55.78a95.21,95.21,0,0,0,1.18,15,.75.75,0,0,1-.58.85L93.92,77.29l-.16,0a.74.74,0,0,1-.66-.41C87.88,66.68,87.58,54.21,87.7,49.32Zm33.37,51.35a.75.75,0,0,1-.65.38h0c-39.13-.45-52.66-8.25-57.24-12.87a.74.74,0,0,1-.19-.74.76.76,0,0,1,.56-.52l27.76-6a.77.77,0,0,1,.8.34,27,27,0,0,0,19.72,13c2.67.44,7.26,1.37,9.24,5.65A.82.82,0,0,1,121.07,100.67Zm13.58-.11a.75.75,0,0,1-.71.51h-8.56a.75.75,0,0,1-.72-.52c-2.39-7.88-10.07-8.91-12.31-9.24A24.23,24.23,0,0,1,95.62,81.06a.73.73,0,0,1-.09-.7.75.75,0,0,1,.54-.47l24.62-5.32a.77.77,0,0,1,.89.58c2.1,10,5.61,17.6,10.42,22.49a26.05,26.05,0,0,0,2.39,2.09A.74.74,0,0,1,134.65,100.56Zm11.2-.36a.75.75,0,0,1-.25.56.78.78,0,0,1-.5.19H145a17.53,17.53,0,0,1-10.87-5.4h0c-4.41-4.48-7.65-11.55-9.62-21a.76.76,0,0,1,.58-.88l19.84-4.29a.79.79,0,0,1,.63.15.78.78,0,0,1,.28.59Zm0-34.73a.75.75,0,0,1-.59.73l-20.64,4.46-.16,0a.71.71,0,0,1-.42-.14.74.74,0,0,1-.32-.5,97,97,0,0,1-1.14-14.24V41.46a.75.75,0,0,1,.59-.73l21.76-4.92a.72.72,0,0,1,.63.15.73.73,0,0,1,.29.58Zm0-33.54a.75.75,0,0,1-.59.73L123.5,37.58l-.17,0a.71.71,0,0,1-.46-.17.73.73,0,0,1-.29-.58V9.37a.75.75,0,0,1,.59-.73l21.77-4.73a.79.79,0,0,1,.63.15.77.77,0,0,1,.28.58Z"/><path class="cls-1" d="M4.84,173a.67.67,0,0,1-.66-.66V158.24a.66.66,0,0,1,.66-.66h12a.22.22,0,0,0,.22-.22v-3.48a.22.22,0,0,0-.22-.22h-12a.66.66,0,0,1-.66-.66V140.42a.67.67,0,0,1,.66-.66h12a.22.22,0,0,0,.22-.22V136a.22.22,0,0,0-.22-.22H.22A.22.22,0,0,0,0,136v41a.22.22,0,0,0,.22.22H16.76a.22.22,0,0,0,.22-.22v-3.65a.22.22,0,0,0-.22-.22Z"/><path class="cls-1" d="M51,141h0a12.25,12.25,0,0,0-4.53-4,13.21,13.21,0,0,0-5.9-1.32h-8.4a.22.22,0,0,0-.22.22v41a.22.22,0,0,0,.22.22h8.35a13.11,13.11,0,0,0,5.9-1.33,12.53,12.53,0,0,0,4.55-3.94,19.11,19.11,0,0,0,2.9-6.47,35.8,35.8,0,0,0,1-8.9,36.31,36.31,0,0,0-1-8.94A20,20,0,0,0,51,141Zm-14.82-.72a.67.67,0,0,1,.66-.67h3.63a8.21,8.21,0,0,1,4,1,9.37,9.37,0,0,1,3.22,3.07A16.28,16.28,0,0,1,49.79,149a32,32,0,0,1,.79,7.52,31.29,31.29,0,0,1-.79,7.43,16.51,16.51,0,0,1-2.17,5.21,9.37,9.37,0,0,1-3.22,3.07,8.18,8.18,0,0,1-4,1H36.79a.67.67,0,0,1-.66-.67Z"/><rect class="cls-1" x="67.81" y="135.73" width="4.29" height="41.4" rx="0.22" ry="0.22"/><path class="cls-1" d="M85.8,135.73a.22.22,0,0,0-.22.22v3.47a.22.22,0,0,0,.22.22h6.59a.67.67,0,0,1,.67.67v36.6a.22.22,0,0,0,.22.22h3.79a.22.22,0,0,0,.22-.22v-36.6a.67.67,0,0,1,.66-.67h6.65a.22.22,0,0,0,.22-.22V136a.22.22,0,0,0-.22-.22Z"/><rect class="cls-1" x="118.2" y="135.73" width="4.29" height="41.4" rx="0.22" ry="0.22"/><path class="cls-1" d="M192,135.73a.22.22,0,0,0-.22.22v31.56c0,.32.06.55-.18.55-.41,0-.65-.91-.77-1.21l-12.25-31a.22.22,0,0,0-.2-.14h-4.64a.22.22,0,0,0-.22.22v41a.22.22,0,0,0,.22.22h3.58a.22.22,0,0,0,.22-.22v-31.7c0-.15-.06-.36.22-.36s.64.87,1.07,1.94l12,30.2a.22.22,0,0,0,.2.14h4.46a.22.22,0,0,0,.22-.22V136a.22.22,0,0,0-.22-.22Z"/><path class="cls-1" d="M148.93,177h-.06c-8.34,0-13.12-7.41-13.12-20.34,0-17.32,7.13-21,13.12-21s13.18,3.63,13.18,21C162.05,169.61,157.27,177,148.93,177Zm0-37.21c-2.3,0-9.1,0-9.1,16.87,0,6.07,1.17,16.26,9,16.26h.06c7.86,0,9-10.19,9-16.26C158,139.81,151.16,139.81,148.93,139.81Z"/><path class="cls-1" d="M209.36,169.51l-1.26,3.54a.3.3,0,0,0,.05.3,10.41,10.41,0,0,0,8.36,3.9c5.71,0,11.49-3.79,11.49-11,0-4.93-2.1-8.54-6.25-10.73l-5.53-3.08c-4-2.35-3.8-5.53-3.79-5.69,0-6.57,5.29-7,6.92-7.11,3.19-.12,3.9.52,4.9,1,0,0,.24.19.32,0l1.12-3.33a.31.31,0,0,0-.14-.37,11.74,11.74,0,0,0-6.06-1.45,10.82,10.82,0,0,0-11.05,11.05c-.07,1-.11,5.89,5.8,9.35l5.54,3.1c4.16,2.18,3.83,7.09,3.82,7.15-.28,5.09-3.85,6.92-7.09,6.93,0,0-3.69.29-6.72-3.69a.21.21,0,0,0-.21-.14S209.43,169.23,209.36,169.51Z"/></svg>